<svg version="1.1" id="Layer_1" xmlns="http://www.w3.org/2000/svg" xmlns:xlink="http://www.w3.org/1999/xlink" x="0px" y="0px"
	 width="100%" viewBox="0 0 1254 1254" enable-background="new 0 0 1254 1254" xml:space="preserve">
<path fill="#010415" opacity="1.000000" stroke="none" 
	d="
M1255.000000,268.000000 
	C1255.000000,507.028046 1255.000000,746.056091 1254.625000,985.698730 
	C1249.989502,1028.551880 1238.038452,1068.466797 1216.205688,1104.923462 
	C1164.280884,1191.627930 1088.605835,1242.131470 987.486877,1253.159058 
	C982.319092,1253.722534 977.162048,1254.384033 972.000000,1255.000000 
	C742.971985,1255.000000 513.943909,1255.000000 284.295258,1254.619873 
	C275.252655,1253.216187 266.808105,1252.349609 258.412384,1251.143311 
	C207.406937,1243.815308 161.587128,1224.204468 120.913994,1192.627197 
	C80.560715,1161.298096 49.850597,1122.290894 28.815157,1075.745728 
	C14.748778,1044.621094 5.004762,1012.297791 2.645509,978.006348 
	C2.346043,973.653748 1.560398,969.334656 0.999999,965.000000 
	C1.000000,739.305298 1.000000,513.610596 1.375569,287.263062 
	C2.283295,280.145294 2.631138,273.659027 3.377814,267.218994 
	C7.894445,228.263245 19.861895,191.592743 39.242096,157.629059 
	C91.278908,66.434944 169.023361,13.744409 274.047607,2.549928 
	C276.723083,2.264750 279.350281,1.526794 282.000000,1.000000 
	C513.361389,1.000000 744.722717,1.000000 976.745361,1.374055 
	C988.325256,2.896048 999.362366,3.380054 1010.142944,5.302458 
	C1068.726685,15.749233 1119.935669,41.198132 1162.720825,82.658310 
	C1211.030518,129.471939 1241.504150,185.923294 1252.296265,252.631683 
	C1253.126953,257.765869 1254.095581,262.877747 1255.000000,268.000000 
M944.501404,597.828003 
	C944.696045,597.537964 944.890625,597.247925 945.278992,596.578979 
	C945.278992,596.578979 945.431213,596.181641 945.747131,595.981506 
	C945.930542,595.811279 946.074036,595.612366 946.741394,595.235413 
	C947.171570,594.865234 947.601807,594.495056 948.465637,593.870972 
	C948.625183,593.587097 948.784790,593.303223 949.060669,592.367981 
	C950.038940,591.549866 951.017151,590.731750 952.625671,589.714966 
	C956.455139,585.535889 960.284607,581.356873 964.644714,576.846863 
	C965.533691,575.970581 966.422668,575.094360 967.819031,574.050293 
	C968.189087,573.686707 968.559143,573.323120 969.403992,572.638245 
	C969.611755,572.115967 969.819458,571.593628 970.632812,570.770386 
	C972.438354,568.526733 974.243896,566.283020 976.003296,563.998169 
	C976.003296,563.998169 976.036438,564.049744 976.664978,563.741272 
	C977.087952,562.495850 977.510925,561.250366 978.356934,559.464355 
	C980.603821,557.355591 982.850647,555.246826 985.503296,552.891968 
	C985.762390,552.692200 985.943176,552.436951 986.656433,551.945740 
	C987.161438,551.318604 987.666382,550.691467 988.691650,549.734741 
	C989.145508,548.854309 989.599426,547.973938 990.653137,546.769897 
	C997.451416,537.852539 1004.249695,528.935181 1011.576843,519.611145 
	C1013.398193,517.038086 1015.353882,514.548828 1017.019531,511.878601 
	C1028.975464,492.710968 1041.015625,473.593201 1052.708740,454.265747 
	C1056.685181,447.693085 1059.739746,440.562622 1063.215454,433.687012 
	C1062.851318,433.436707 1062.487183,433.186401 1062.123047,432.936066 
	C1061.046143,433.844116 1059.914429,434.695129 1058.900879,435.669067 
	C1049.670044,444.539520 1040.801514,453.823334 1031.165039,462.227051 
	C1015.909302,475.531036 1000.656982,488.937958 984.455872,501.032288 
	C966.522461,514.419739 947.523560,526.380066 928.356506,539.064331 
	C927.517517,539.688721 926.678528,540.313110 925.289185,540.997803 
	C924.850830,541.305664 924.412537,541.613525 923.395935,542.023499 
	C922.934143,542.355530 922.472351,542.687561 921.571655,543.168823 
	C921.284668,543.312988 921.069275,543.528687 920.361694,543.952148 
	C919.897095,544.271973 919.432495,544.591797 918.291504,545.079895 
	C914.506653,547.364685 910.721741,549.649536 906.995789,551.940308 
	C906.995789,551.940308 906.935669,551.915649 906.229248,552.023438 
	C902.388855,554.305542 898.548462,556.587646 894.187805,558.911743 
	C893.766479,559.190125 893.345154,559.468506 892.459351,559.865295 
	C892.459351,559.865295 891.995361,559.985779 891.563110,560.128906 
	C891.275757,560.268982 891.073608,560.487793 890.351257,560.931641 
	C889.843201,561.266968 889.335144,561.602295 888.198059,562.010498 
	C887.063538,562.877563 885.928955,563.744629 884.379456,564.632080 
	C884.379456,564.632080 884.003845,564.809631 883.249573,564.835144 
	C880.476501,566.175476 877.703369,567.515808 874.223083,568.996094 
	C870.449280,570.947937 866.675476,572.899719 862.271301,575.141235 
	C859.826477,576.349976 857.381653,577.558716 854.333130,578.924500 
	C853.819031,579.253479 853.304932,579.582397 852.070007,579.941406 
	C849.336975,581.278198 846.603943,582.615051 843.315979,583.990234 
	C842.855408,584.269470 842.394836,584.548706 841.212708,584.990540 
	C836.144043,587.360291 831.075317,589.729980 825.330505,592.295837 
	C821.834900,594.050903 818.339294,595.805969 814.066772,597.718201 
	C811.036499,598.797485 808.006165,599.876770 804.334961,601.025757 
	C803.555542,601.379211 802.776123,601.732666 801.322266,602.310242 
	C797.204041,604.170166 793.085876,606.030029 788.331421,607.979065 
	C787.554199,608.330383 786.777039,608.681702 785.271606,609.114868 
	C772.822266,614.366943 760.372864,619.619019 747.175964,624.960388 
	C743.116943,626.644897 739.057983,628.329468 734.260986,630.090515 
	C727.740967,633.015930 721.220886,635.941345 713.943298,638.884277 
	C712.529724,639.298828 711.059875,639.580383 709.711975,640.150208 
	C702.796814,643.073547 695.912903,646.070984 688.271973,648.827576 
	C683.046204,651.128296 677.820374,653.429016 671.897278,655.884888 
	C658.101135,662.069824 644.252014,668.139526 630.518005,674.459473 
	C563.888245,705.119812 501.833466,742.965820 446.717621,791.691772 
	C445.512970,792.756653 443.948334,793.414429 441.752686,794.747009 
	C448.420044,781.109985 454.555176,768.583923 460.671234,756.048462 
	C491.695892,692.460266 522.759583,628.891052 553.720032,565.271606 
	C571.544861,528.643982 589.207703,491.937439 606.922607,455.256409 
	C609.557007,449.801392 613.810608,446.753082 619.870056,446.701721 
	C625.153809,446.656921 629.305237,449.238190 631.597229,453.871246 
	C652.086060,495.285400 672.447815,536.762390 692.847351,578.220703 
	C697.978943,588.649658 703.111877,599.078003 708.325623,609.672058 
	C742.327209,595.633301 775.990173,581.734436 809.774902,567.785217 
	C808.652283,565.548706 807.838989,563.911865 807.011414,562.282227 
	C776.184082,501.582001 745.366943,440.876526 714.520020,380.186249 
	C705.472229,362.385071 696.924011,344.296936 687.111084,326.925415 
	C671.676636,299.602356 639.763306,284.602722 608.932861,290.045197 
	C580.622375,295.042847 561.030823,311.708710 548.492615,337.362335 
	C510.278473,415.549713 471.949219,493.680969 433.576477,571.790649 
	C396.120361,648.034668 358.544556,724.219788 321.042358,800.441162 
	C295.032959,853.303894 269.053040,906.181152 243.080597,959.062073 
	C240.721725,963.864746 238.513992,968.741699 236.056503,973.965881 
	C280.108795,973.965881 323.432739,973.853394 366.754669,974.097107 
	C372.695862,974.130493 377.097626,973.231018 379.681427,966.967468 
	C384.766541,961.775452 390.055603,956.766174 394.900665,951.359070 
	C413.598602,930.491760 433.829376,911.200989 455.468536,893.466553 
	C484.561066,869.623657 515.192200,847.883423 547.227295,828.118958 
	C588.777222,802.484131 631.741699,779.535767 676.170715,759.305359 
	C680.635315,757.272461 684.855835,754.703552 689.946838,752.268250 
	C697.296692,749.164673 704.646545,746.061035 712.718567,742.879028 
	C717.811707,740.593445 722.904785,738.307861 728.584167,735.968262 
	C729.071594,735.673340 729.558960,735.378418 730.680420,735.006958 
	C731.454407,734.659363 732.228455,734.311829 733.730286,733.880981 
	C740.456848,731.150391 747.183411,728.419800 754.143799,725.594238 
	C758.944824,735.397888 763.390442,744.676697 768.009277,753.868347 
	C779.668701,777.070618 791.453003,800.210144 803.093445,823.421875 
	C809.501770,836.200500 815.638733,849.115173 822.043884,861.895447 
	C831.734497,881.231018 841.624451,900.466675 851.294312,919.812500 
	C859.703003,936.635010 867.973022,953.527588 876.177185,970.450806 
	C877.465698,973.108643 879.140991,973.976868 882.015198,973.921204 
	C900.421692,973.564331 918.830688,973.267639 937.240051,973.153809 
	C944.045593,973.111694 950.852844,973.757507 957.662354,973.841736 
	C968.109741,973.970947 978.561340,973.994934 989.007812,973.838562 
	C993.208374,973.775696 997.400146,973.117676 1002.184204,972.676270 
	C1000.956238,970.081116 1000.080200,968.138184 999.128845,966.232971 
	C987.974854,943.898010 976.849731,921.548523 965.639465,899.241821 
	C936.401306,841.062134 907.117371,782.905579 877.868103,724.731506 
	C869.867798,708.819824 861.968750,692.857056 853.915710,676.972229 
	C852.474915,674.130371 853.201782,672.585327 855.678162,670.809692 
	C869.997192,660.542358 884.548462,650.552063 898.338257,639.607422 
	C910.418091,630.020020 921.598877,619.299744 933.674683,608.663574 
	C937.137939,605.126770 940.601257,601.590027 944.036987,598.018555 
	C944.036987,598.018555 944.019775,598.049988 944.501404,597.828003 
M891.680054,488.028229 
	C895.955811,488.042389 900.276245,488.465027 904.499939,488.002991 
	C928.272522,485.402588 946.979065,465.341827 947.879211,440.769897 
	C949.092346,407.654419 919.867798,384.028595 887.279907,391.126312 
	C860.121887,397.041412 843.012085,426.764832 851.513245,453.120728 
	C857.767273,472.509979 871.089600,483.830688 891.680054,488.028229 
M1063.680664,431.577576 
	C1063.680664,431.577576 1063.442505,431.458710 1063.442505,431.458710 
	C1063.442505,431.458710 1063.494385,431.742554 1063.680664,431.577576 
z"/>
<path fill="#FDFDFD" opacity="1.000000" stroke="none" 
	d="
M0.999999,965.468628 
	C1.560398,969.334656 2.346043,973.653748 2.645509,978.006348 
	C5.004762,1012.297791 14.748778,1044.621094 28.815157,1075.745728 
	C49.850597,1122.290894 80.560715,1161.298096 120.913994,1192.627197 
	C161.587128,1224.204468 207.406937,1243.815308 258.412384,1251.143311 
	C266.808105,1252.349609 275.252655,1253.216187 283.837311,1254.619873 
	C189.738708,1255.000000 95.477432,1255.000000 1.000000,1255.000000 
	C1.000000,1158.645874 1.000000,1062.291626 0.999999,965.468628 
z"/>
<path fill="#FDFDFD" opacity="1.000000" stroke="none" 
	d="
M281.531342,1.000000 
	C279.350281,1.526794 276.723083,2.264750 274.047607,2.549928 
	C169.023361,13.744409 91.278908,66.434944 39.242096,157.629059 
	C19.861895,191.592743 7.894445,228.263245 3.377814,267.218994 
	C2.631138,273.659027 2.283295,280.145294 1.375569,286.805115 
	C1.000000,191.740250 1.000000,96.480507 1.000000,1.000000 
	C94.354111,1.000000 187.708405,1.000000 281.531342,1.000000 
z"/>
<path fill="#FDFDFD" opacity="1.000000" stroke="none" 
	d="
M972.468628,1255.000000 
	C977.162048,1254.384033 982.319092,1253.722534 987.486877,1253.159058 
	C1088.605835,1242.131470 1164.280884,1191.627930 1216.205688,1104.923462 
	C1238.038452,1068.466797 1249.989502,1028.551880 1254.625000,986.156677 
	C1255.000000,1075.595581 1255.000000,1165.191162 1255.000000,1255.000000 
	C1160.979248,1255.000000 1066.958252,1255.000000 972.468628,1255.000000 
z"/>
<path fill="#FDFDFD" opacity="1.000000" stroke="none" 
	d="
M1255.000000,267.531342 
	C1254.095581,262.877747 1253.126953,257.765869 1252.296265,252.631683 
	C1241.504150,185.923294 1211.030518,129.471939 1162.720825,82.658310 
	C1119.935669,41.198132 1068.726685,15.749233 1010.142944,5.302458 
	C999.362366,3.380054 988.325256,2.896048 977.203247,1.374055 
	C1069.592285,1.000000 1162.184448,1.000000 1255.000000,1.000000 
	C1255.000000,89.687439 1255.000000,178.375061 1255.000000,267.531342 
z"/>
<path fill="#FDFCFD" opacity="1.000000" stroke="none" 
	d="
M378.982452,967.051941 
	C377.097626,973.231018 372.695862,974.130493 366.754669,974.097107 
	C323.432739,973.853394 280.108795,973.965881 236.056503,973.965881 
	C238.513992,968.741699 240.721725,963.864746 243.080597,959.062073 
	C269.053040,906.181152 295.032959,853.303894 321.042358,800.441162 
	C358.544556,724.219788 396.120361,648.034668 433.576477,571.790649 
	C471.949219,493.680969 510.278473,415.549713 548.492615,337.362335 
	C561.030823,311.708710 580.622375,295.042847 608.932861,290.045197 
	C639.763306,284.602722 671.676636,299.602356 687.111084,326.925415 
	C696.924011,344.296936 705.472229,362.385071 714.520020,380.186249 
	C745.366943,440.876526 776.184082,501.582001 807.011414,562.282227 
	C807.838989,563.911865 808.652283,565.548706 809.774902,567.785217 
	C775.990173,581.734436 742.327209,595.633301 708.325623,609.672058 
	C703.111877,599.078003 697.978943,588.649658 692.847351,578.220703 
	C672.447815,536.762390 652.086060,495.285400 631.597229,453.871246 
	C629.305237,449.238190 625.153809,446.656921 619.870056,446.701721 
	C613.810608,446.753082 609.557007,449.801392 606.922607,455.256409 
	C589.207703,491.937439 571.544861,528.643982 553.720032,565.271606 
	C522.759583,628.891052 491.695892,692.460266 460.671234,756.048462 
	C454.555176,768.583923 448.420044,781.109985 441.752686,794.747009 
	C443.948334,793.414429 445.512970,792.756653 446.717621,791.691772 
	C501.833466,742.965820 563.888245,705.119812 630.518005,674.459473 
	C644.252014,668.139526 658.101135,662.069824 672.505249,655.965088 
	C673.394226,656.324646 673.675293,656.603882 673.658447,657.069458 
	C669.475830,659.408569 665.591125,661.561462 661.764648,663.737427 
	C661.822937,663.760498 661.792114,663.638916 661.497498,663.709351 
	C660.732178,664.130188 660.261414,664.480652 659.842041,664.850952 
	C659.893494,664.870850 659.890564,664.760620 659.590027,664.810059 
	C658.810608,665.204773 658.331665,665.550110 657.894165,665.926636 
	C657.935547,665.957825 657.911621,665.856934 657.558105,665.908691 
	C653.364502,668.196350 649.524475,670.432190 645.749146,672.705444 
	C645.813782,672.742859 645.750427,672.607483 645.461060,672.685059 
	C644.714783,673.122192 644.257996,673.481689 643.855103,673.878662 
	C643.908997,673.916016 643.857117,673.795532 643.545227,673.854370 
	C642.020752,674.682007 640.808167,675.450806 639.485352,676.243225 
	C639.375183,676.266846 639.196045,676.403687 638.886658,676.511841 
	C612.583252,691.662720 588.396484,709.305054 565.075195,728.140320 
	C498.885773,781.597412 445.408142,845.839966 403.544800,919.781494 
	C394.801880,935.223816 387.141632,951.279114 378.982452,967.051941 
z"/>
<path fill="#1A315F" opacity="1.000000" stroke="none" 
	d="
M951.995361,589.913574 
	C951.017151,590.731750 950.038940,591.549866 948.789673,592.820312 
	C948.258301,593.500671 948.096069,593.784729 948.031982,594.124878 
	C947.601807,594.495056 947.171570,594.865234 946.404236,594.842651 
	C946.273926,590.663757 946.098938,586.829895 941.354736,586.175537 
	C938.186951,585.738647 934.246155,584.879150 933.396118,588.586609 
	C935.651001,591.971985 937.325500,594.486023 938.790955,597.281128 
	C936.949402,601.864197 934.323669,603.947937 929.284607,600.641235 
	C929.101807,601.125732 928.919067,601.610229 928.736267,602.094788 
	C930.216431,604.423157 931.696594,606.751526 933.176819,609.079834 
	C921.598877,619.299744 910.418091,630.020020 898.338257,639.607422 
	C884.548462,650.552063 869.997192,660.542358 855.678162,670.809692 
	C853.201782,672.585327 852.474915,674.130371 853.915710,676.972229 
	C861.968750,692.857056 869.867798,708.819824 877.868103,724.731506 
	C907.117371,782.905579 936.401306,841.062134 965.639465,899.241821 
	C976.849731,921.548523 987.974854,943.898010 999.128845,966.232971 
	C1000.080200,968.138184 1000.956238,970.081116 1002.184204,972.676270 
	C997.400146,973.117676 993.208374,973.775696 989.007812,973.838562 
	C978.561340,973.994934 968.109741,973.970947 957.662354,973.841736 
	C950.852844,973.757507 944.045593,973.111694 937.240051,973.153809 
	C918.830688,973.267639 900.421692,973.564331 882.015198,973.921204 
	C879.140991,973.976868 877.465698,973.108643 876.177185,970.450806 
	C867.973022,953.527588 859.703003,936.635010 851.294312,919.812500 
	C841.624451,900.466675 831.734497,881.231018 822.043884,861.895447 
	C815.638733,849.115173 809.501770,836.200500 803.093445,823.421875 
	C791.453003,800.210144 779.668701,777.070618 768.009277,753.868347 
	C763.390442,744.676697 758.944824,735.397888 754.143799,725.594238 
	C747.183411,728.419800 740.456848,731.150391 733.428711,733.579834 
	C733.632996,731.978333 734.675659,730.624268 734.551575,729.387146 
	C734.020386,724.092407 736.552612,720.542114 740.684448,717.924683 
	C744.395020,715.574097 747.084473,717.648376 749.928406,720.106873 
	C751.011414,721.043213 754.397461,721.338501 754.827759,720.680115 
	C757.741455,716.221741 760.144714,711.429749 762.712952,706.745605 
	C758.718445,707.694214 755.440857,710.793335 752.013611,710.968811 
	C748.692017,711.138916 745.216614,708.304016 743.019653,707.327271 
	C738.381287,709.989563 734.178772,712.692627 729.713379,714.852356 
	C727.157959,716.088257 726.579651,717.441895 727.568848,719.909851 
	C729.986145,725.941528 725.085083,733.441406 718.405029,734.000427 
	C712.844299,734.465820 710.636475,737.551636 711.996460,742.957397 
	C704.646545,746.061035 697.296692,749.164673 689.509644,751.884216 
	C687.554199,746.518738 692.429810,745.568970 695.718140,742.328064 
	C692.874817,742.485413 691.243286,742.575684 688.922546,742.704102 
	C691.266785,738.431641 693.857788,737.375488 698.067383,738.870605 
	C700.132874,739.604187 702.715820,738.880920 705.064575,738.816956 
	C704.839417,737.047180 704.795776,735.230591 704.353210,733.516968 
	C703.270325,729.323853 706.270569,724.627319 710.556519,723.996399 
	C711.589905,723.844299 712.602905,723.553833 713.132263,723.436340 
	C711.017395,720.918213 708.979675,718.491943 706.904785,716.021484 
	C702.652527,721.746948 701.428589,722.165588 694.304871,721.001282 
	C690.450195,720.371338 686.568787,719.904419 682.618591,719.352661 
	C683.344055,726.353210 683.344055,726.353210 674.349182,727.262512 
	C673.389587,724.622559 672.497253,722.167664 671.565979,719.605774 
	C677.131287,714.046997 677.131287,714.046997 682.584534,715.173950 
	C684.012939,704.313477 682.751465,699.722595 678.887268,699.815674 
	C679.327271,702.689575 679.775208,705.615601 680.223206,708.541687 
	C677.665833,707.972107 675.108459,707.402588 672.167419,706.747559 
	C669.760864,708.505615 666.849426,710.632507 664.206116,712.563538 
	C659.257568,710.756104 654.676941,709.083130 651.164551,707.800293 
	C650.317261,704.254089 649.690735,701.781433 649.144470,699.291199 
	C648.799988,697.720459 647.941040,695.894409 648.414917,694.580322 
	C649.923706,690.396362 648.127441,688.060303 644.868896,685.869080 
	C641.587036,683.662170 638.352295,681.189758 639.196045,676.403687 
	C639.196045,676.403687 639.375183,676.266846 639.824097,676.430664 
	C641.467773,675.661499 642.662415,674.728455 643.857056,673.795532 
	C643.857117,673.795532 643.908997,673.916016 644.188904,673.890015 
	C644.895996,673.445129 645.323181,673.026306 645.750427,672.607483 
	C645.750427,672.607483 645.813782,672.742859 646.136902,672.794434 
	C647.748657,672.730774 649.037292,672.615540 650.895203,672.449463 
	C650.996704,682.659180 657.572815,685.787720 665.986328,686.286865 
	C668.981873,677.172852 660.981140,674.281616 656.216370,669.805481 
	C656.905273,668.200928 657.408447,667.028931 657.911621,665.856934 
	C657.911621,665.856934 657.935547,665.957825 658.217896,665.926392 
	C658.963623,665.516846 659.427063,665.138672 659.890503,664.760620 
	C659.890564,664.760620 659.893494,664.870850 660.176270,664.866699 
	C660.903381,664.454651 661.347778,664.046814 661.792114,663.638916 
	C661.792114,663.638916 661.822937,663.760498 662.166809,663.818848 
	C663.967896,664.943298 666.046997,665.692627 666.778503,667.128540 
	C670.677551,674.782104 675.962830,675.906006 682.097107,670.073853 
	C684.111206,668.158936 687.737610,668.737061 688.828003,671.062866 
	C689.911682,673.374451 691.141418,675.617554 692.492249,678.251892 
	C689.268799,679.810120 684.385010,681.828552 686.344238,686.737427 
	C689.198853,693.889709 692.870605,686.729919 696.479370,685.814514 
	C696.479370,687.811523 696.479370,689.180298 696.479370,691.492615 
	C698.248474,690.631042 700.495789,689.895996 700.437439,689.501892 
	C700.202393,687.912292 699.255798,686.428040 698.339783,684.387695 
	C701.315918,681.736755 703.251221,676.694702 709.301758,678.810120 
	C709.786194,678.979553 710.560486,678.533447 711.123962,678.231384 
	C719.507202,673.737000 724.929016,666.507507 729.686157,658.535339 
	C732.567993,653.705872 735.879272,649.113708 739.238647,644.594177 
	C742.017944,640.855164 745.092346,637.328430 748.143860,633.800903 
	C750.832703,630.692627 750.341064,627.789185 747.923462,624.871094 
	C760.372864,619.619019 772.822266,614.366943 785.642822,609.451172 
	C786.088379,610.277893 786.026855,610.846313 786.257202,611.246948 
	C790.065002,617.870483 790.073242,617.865723 783.403137,621.042786 
	C780.280029,622.530457 779.879211,627.166687 782.890381,629.172241 
	C785.065918,630.621399 787.462646,631.874023 789.931824,632.707153 
	C792.212708,633.476562 794.267700,633.221008 793.838989,629.714233 
	C793.658386,628.237122 794.313599,626.657837 794.588867,625.125000 
	C795.815369,626.181763 797.189392,627.110535 798.239197,628.320557 
	C800.851074,631.330750 804.041687,631.047974 807.254456,629.947021 
	C808.603333,629.484802 810.859863,627.821838 810.732849,627.511414 
	C809.725647,625.050232 808.335999,622.722900 806.869141,620.481812 
	C806.103027,619.311279 805.026367,618.300171 803.944580,617.389771 
	C802.138672,615.869751 800.243164,614.450928 798.331787,613.063293 
	C797.277527,612.297852 796.114197,611.682861 795.417969,611.000000 
	C802.971191,610.866516 803.378906,610.276550 801.996765,602.086182 
	C802.776123,601.732666 803.555542,601.379211 804.886597,601.266602 
	C808.828247,602.290771 812.857544,607.129639 815.298706,600.149048 
	C819.853027,603.392517 824.126526,606.462952 828.351074,609.599243 
	C829.319519,610.318237 830.525513,611.104919 830.928101,612.132446 
	C832.785889,616.874817 834.275391,621.763306 836.193237,626.478882 
	C836.625488,627.541626 838.184204,628.601135 839.340515,628.748108 
	C840.063599,628.840088 841.674988,627.265076 841.732117,626.364746 
	C841.993713,622.246399 841.847046,618.102051 841.847046,613.276001 
	C846.683533,613.539978 847.727051,610.677917 848.413757,606.794067 
	C848.951538,603.752808 850.370911,598.948853 852.300781,598.455200 
	C856.899597,597.279053 856.462830,603.230774 858.932983,605.515686 
	C859.025452,605.601257 858.980774,605.835205 858.721497,606.037354 
	C858.126099,606.373840 857.809265,606.673035 857.492371,606.972229 
	C857.696777,607.148438 857.901245,607.324646 858.105713,607.500916 
	C858.403809,607.000610 858.701904,606.500305 859.412964,606.000000 
	C861.679871,605.597839 863.533875,605.195679 865.387817,604.793518 
	C864.546997,602.960632 863.560913,601.177917 862.906006,599.280823 
	C862.244873,597.365601 861.009949,594.943298 861.659180,593.455688 
	C862.509888,591.506287 864.961243,590.255432 866.675354,588.747070 
	C867.635925,592.588806 868.336487,595.390503 869.138855,598.599243 
	C871.810852,596.758240 874.091919,596.031006 874.429382,594.779541 
	C875.147827,592.115723 876.071960,587.889282 874.727173,586.622681 
	C871.896973,583.956909 867.659729,582.785034 864.000000,580.602173 
	C863.633911,578.420105 863.267822,576.635803 862.901672,574.851501 
	C866.675476,572.899719 870.449280,570.947937 874.721008,569.251465 
	C876.707458,570.529480 878.204041,572.354370 879.682190,572.339600 
	C881.044067,572.325928 882.754517,570.560181 883.618896,569.143677 
	C884.296082,568.033875 883.914856,566.278320 884.003845,564.809631 
	C884.003845,564.809631 884.379456,564.632080 884.763245,565.011841 
	C885.431396,567.261108 885.715698,569.130554 885.695312,571.153809 
	C883.482910,572.610535 881.009705,573.538086 879.825623,575.321472 
	C878.626465,577.127747 878.506409,579.769470 878.376465,582.071350 
	C878.348938,582.559509 880.804443,583.905396 881.296326,583.587585 
	C884.264587,581.670105 887.754578,579.876282 889.573181,577.070862 
	C891.139221,574.654968 892.508606,573.848267 895.206421,574.253418 
	C896.275269,575.337891 897.137634,576.168945 898.008545,577.393127 
	C899.515564,581.761902 899.306763,584.665833 894.298828,586.023315 
	C891.433838,586.799927 891.268555,589.368958 893.206421,591.590576 
	C895.627686,594.366211 900.174438,593.196838 900.824280,589.367371 
	C901.406799,585.934509 903.123108,584.610657 906.197937,584.222900 
	C908.432373,590.753540 907.387939,593.572449 901.918152,597.102478 
	C901.091797,597.635681 900.822449,599.031921 900.295410,600.028992 
	C901.329834,600.109497 902.645386,600.632324 903.345642,600.187195 
	C905.417908,598.869873 907.197144,597.102295 909.185974,595.640076 
	C911.077698,594.249207 913.089050,593.021179 915.047852,591.721558 
	C915.099548,592.218262 915.151245,592.714966 915.202942,593.211731 
	C917.212402,594.140991 919.138367,595.526184 921.247314,595.912354 
	C927.092590,596.982849 929.143860,592.600159 930.670166,588.300842 
	C931.686829,585.437317 932.787598,583.675354 936.193298,583.945984 
	C941.447327,584.363525 941.546448,579.823914 942.596985,576.547241 
	C943.742981,572.972412 940.118408,573.483398 938.499817,572.201965 
	C937.420288,571.347290 936.130493,569.757507 936.255432,568.644958 
	C936.399109,567.365234 937.791565,565.554565 939.005310,565.192261 
	C942.639526,564.107361 948.307495,567.164001 950.150696,570.780151 
	C951.895874,570.498352 954.020813,570.723755 955.382812,569.810791 
	C957.822937,568.175232 960.579590,566.225403 961.775146,563.723999 
	C963.182190,560.780212 961.169006,558.701355 957.870422,557.565002 
	C956.765381,557.184326 956.484863,554.410400 955.827454,552.730469 
	C956.422302,552.354431 957.017212,551.978394 957.612122,551.602356 
	C959.302856,553.185303 960.914429,554.866211 962.710999,556.318298 
	C964.010071,557.368286 965.453491,558.440063 967.012146,558.925537 
	C969.939453,559.837341 972.996765,560.331970 976.000366,561.380859 
	C976.012634,562.524414 976.024536,563.287109 976.036438,564.049744 
	C976.036438,564.049744 976.003296,563.998169 975.652710,563.960876 
	C969.487000,560.803467 965.876282,561.906982 964.735901,566.183899 
	C966.752502,568.046570 968.389832,569.558960 970.027161,571.071350 
	C969.819458,571.593628 969.611755,572.115967 968.893921,572.687378 
	C967.720459,572.763184 967.057068,572.789734 966.393799,572.816284 
	C966.699768,573.283508 967.005737,573.750793 967.311646,574.218140 
	C966.422668,575.094360 965.533691,575.970581 964.220703,576.676392 
	C960.232056,569.630615 959.207886,569.509827 953.529663,574.916687 
	C951.990356,576.382324 950.051392,577.421021 948.448059,578.829102 
	C947.204651,579.921021 945.115112,581.509460 945.317322,582.476685 
	C945.711731,584.363037 947.311340,586.088318 948.677734,587.647339 
	C949.532654,588.622681 950.872864,589.172729 951.995361,589.913574 
M757.286926,640.599609 
	C761.315918,640.188965 765.401184,640.065979 769.358948,639.291321 
	C773.817566,638.418762 778.188354,636.005310 782.257568,640.335815 
	C782.674194,640.779053 784.253174,640.130005 785.292786,639.987854 
	C785.086792,639.134399 785.077820,638.158447 784.637939,637.450256 
	C783.294067,635.286865 781.118835,633.407104 780.488770,631.085388 
	C779.431763,627.190796 776.196594,627.060669 774.407471,628.302673 
	C769.329773,631.827698 764.835449,630.543945 760.044678,628.231812 
	C759.417480,627.929199 758.476074,628.277954 758.338318,628.286072 
	C756.551880,632.314941 754.981506,635.856323 753.346375,639.543823 
	C754.614075,639.846191 755.567932,640.073730 757.286926,640.599609 
M816.193604,640.410339 
	C817.907837,640.585022 819.622009,640.759644 821.989441,641.000793 
	C820.194885,637.043152 821.923767,636.096619 824.864075,635.456543 
	C827.760742,634.825989 831.355957,634.113953 829.517761,629.753479 
	C827.025208,630.454529 824.814453,631.467712 822.547424,631.615356 
	C819.683960,631.801819 816.752075,630.948425 813.889893,631.141296 
	C808.640869,631.494873 810.731873,636.504211 809.280945,639.275513 
	C808.740967,640.306885 808.952148,642.014282 809.423462,643.166992 
	C809.642456,643.702698 811.301025,643.649658 812.436157,643.890930 
	C812.436157,640.656006 812.436157,637.944275 812.436157,635.232605 
	C812.997009,635.172119 813.557922,635.111633 814.118774,635.051147 
	C814.618774,636.650085 815.118774,638.249084 816.193604,640.410339 
M873.968628,576.905396 
	C873.014221,576.138367 872.059814,575.371338 871.105408,574.604309 
	C870.241943,576.046204 868.870300,577.435181 868.712463,578.950562 
	C868.623047,579.808716 870.525696,580.874329 871.531067,581.846497 
	C872.351562,580.455688 873.172058,579.064941 873.968628,576.905396 
M745.703918,700.291260 
	C746.659851,699.114868 747.615845,697.938416 749.381409,695.765808 
	C746.771973,696.433899 745.310791,696.606934 744.053162,697.206787 
	C743.321594,697.555786 742.916504,698.589111 742.364502,699.314453 
	C743.293335,699.778625 744.222229,700.242859 745.703918,700.291260 
M811.416992,610.234497 
	C813.335999,606.134583 809.578552,608.468323 808.851379,607.367615 
	C808.487854,607.860962 808.124390,608.354370 807.760864,608.847717 
	C808.776550,609.415649 809.792236,609.983582 811.416992,610.234497 
M824.193787,623.559692 
	C824.229492,626.433472 824.229492,626.433472 829.582397,624.637146 
	C827.340393,623.978149 826.077515,623.606873 824.193787,623.559692 
M880.241638,599.242554 
	C879.662781,599.693298 879.083923,600.144104 878.505127,600.594910 
	C879.285095,600.986267 880.065125,601.377625 880.845032,601.768921 
	C880.841309,601.031372 880.837585,600.293884 880.241638,599.242554 
M792.610291,654.905029 
	C793.173401,655.074585 793.736511,655.244202 794.299622,655.413757 
	C794.202515,654.850891 794.105408,654.288086 794.008301,653.725220 
	C793.455383,653.945496 792.902466,654.165710 792.610291,654.905029 
M706.694275,685.494141 
	C707.024658,684.963806 707.354980,684.433472 707.685303,683.903076 
	C707.418030,683.772339 707.150757,683.641541 706.883484,683.510803 
	C706.683105,684.030273 706.482727,684.549805 706.694275,685.494141 
M797.490845,635.840515 
	C797.784851,635.423157 798.078796,635.005859 798.372803,634.588501 
	C797.937683,634.476929 797.502625,634.365356 797.067505,634.253845 
	C797.015320,634.741638 796.963135,635.229492 797.490845,635.840515 
M699.192078,716.583252 
	C699.196533,716.205627 699.200928,715.828003 699.205383,715.450439 
	C699.048706,715.448730 698.755859,715.436401 698.755005,715.446777 
	C698.725647,715.822571 698.723511,716.200500 699.192078,716.583252 
M862.543091,635.285156 
	C862.282349,635.011353 862.021606,634.737549 861.760864,634.463684 
	C861.647522,634.571716 861.534119,634.679749 861.420715,634.787781 
	C861.681824,635.061646 861.942871,635.335510 862.543091,635.285156 
M882.714905,608.543152 
	C882.988708,608.282349 883.262512,608.021545 883.536377,607.760742 
	C883.428345,607.647339 883.320312,607.533997 883.212280,607.420715 
	C882.938416,607.681824 882.664551,607.942932 882.714905,608.543152 
z"/>
<path fill="#1A305D" opacity="1.000000" stroke="none" 
	d="
M638.886658,676.511841 
	C638.352295,681.189758 641.587036,683.662170 644.868896,685.869080 
	C648.127441,688.060303 649.923706,690.396362 648.414917,694.580322 
	C647.941040,695.894409 648.799988,697.720459 649.144470,699.291199 
	C649.690735,701.781433 650.317261,704.254089 651.164551,707.800293 
	C654.676941,709.083130 659.257568,710.756104 664.206116,712.563538 
	C666.849426,710.632507 669.760864,708.505615 672.167419,706.747559 
	C675.108459,707.402588 677.665833,707.972107 680.223206,708.541687 
	C679.775208,705.615601 679.327271,702.689575 678.887268,699.815674 
	C682.751465,699.722595 684.012939,704.313477 682.584534,715.173950 
	C677.131287,714.046997 677.131287,714.046997 671.565979,719.605774 
	C672.497253,722.167664 673.389587,724.622559 674.349182,727.262512 
	C683.344055,726.353210 683.344055,726.353210 682.618591,719.352661 
	C686.568787,719.904419 690.450195,720.371338 694.304871,721.001282 
	C701.428589,722.165588 702.652527,721.746948 706.904785,716.021484 
	C708.979675,718.491943 711.017395,720.918213 713.132263,723.436340 
	C712.602905,723.553833 711.589905,723.844299 710.556519,723.996399 
	C706.270569,724.627319 703.270325,729.323853 704.353210,733.516968 
	C704.795776,735.230591 704.839417,737.047180 705.064575,738.816956 
	C702.715820,738.880920 700.132874,739.604187 698.067383,738.870605 
	C693.857788,737.375488 691.266785,738.431641 688.922546,742.704102 
	C691.243286,742.575684 692.874817,742.485413 695.718140,742.328064 
	C692.429810,745.568970 687.554199,746.518738 689.131042,751.941772 
	C684.855835,754.703552 680.635315,757.272461 676.170715,759.305359 
	C631.741699,779.535767 588.777222,802.484131 547.227295,828.118958 
	C515.192200,847.883423 484.561066,869.623657 455.468536,893.466553 
	C433.829376,911.200989 413.598602,930.491760 394.900665,951.359070 
	C390.055603,956.766174 384.766541,961.775452 379.331940,967.009705 
	C387.141632,951.279114 394.801880,935.223816 403.544800,919.781494 
	C445.408142,845.839966 498.885773,781.597412 565.075195,728.140320 
	C588.396484,709.305054 612.583252,691.662720 638.886658,676.511841 
z"/>
<path fill="#1A305D" opacity="1.000000" stroke="none" 
	d="
M891.250000,488.000305 
	C871.089600,483.830688 857.767273,472.509979 851.513245,453.120728 
	C843.012085,426.764832 860.121887,397.041412 887.279907,391.126312 
	C919.867798,384.028595 949.092346,407.654419 947.879211,440.769897 
	C946.979065,465.341827 928.272522,485.402588 904.499939,488.002991 
	C900.276245,488.465027 895.955811,488.042389 891.250000,488.000305 
z"/>
<path fill="#19305C" opacity="1.000000" stroke="none" 
	d="
M923.974182,541.921326 
	C924.412537,541.613525 924.850830,541.305664 925.935547,540.982605 
	C927.384155,540.298889 928.186401,539.630432 928.988708,538.961914 
	C947.523560,526.380066 966.522461,514.419739 984.455872,501.032288 
	C1000.656982,488.937958 1015.909302,475.531036 1031.165039,462.227051 
	C1040.801514,453.823334 1049.670044,444.539520 1058.900879,435.669067 
	C1059.914429,434.695129 1061.046143,433.844116 1062.123047,432.936066 
	C1062.487183,433.186401 1062.851318,433.436707 1063.215454,433.687012 
	C1059.739746,440.562622 1056.685181,447.693085 1052.708740,454.265747 
	C1041.015625,473.593201 1028.975464,492.710968 1017.019531,511.878601 
	C1015.353882,514.548828 1013.398193,517.038086 1010.919128,519.801147 
	C1007.091431,520.320312 1003.922241,520.898804 1000.751221,520.908752 
	C997.558289,520.918701 995.937683,522.352356 996.078064,525.327271 
	C996.284973,529.712830 993.659424,530.684875 990.389709,529.843567 
	C988.516602,529.361633 987.136047,527.188416 985.348755,526.072998 
	C984.119568,525.305969 982.572815,525.047729 981.168030,524.562134 
	C981.215515,525.888672 981.272095,527.215027 981.308655,528.541870 
	C981.409180,532.186890 981.501282,535.832275 981.596741,539.477417 
	C979.428711,539.332275 977.262085,539.151611 975.091797,539.060303 
	C974.273865,539.025879 973.443481,539.170959 972.625122,539.281311 
	C967.750732,539.938660 965.705994,543.184937 965.422485,547.420593 
	C961.395691,548.023865 956.918701,547.455872 954.502136,549.421265 
	C952.291809,551.218811 952.309631,555.755920 951.262207,559.373657 
	C950.821838,559.349670 949.336731,559.005554 947.947815,559.237671 
	C941.220032,560.362000 935.061401,560.565491 930.314575,554.089233 
	C928.028870,550.970764 924.382812,548.865601 921.470703,546.174011 
	C920.980896,545.721313 921.092102,544.618347 920.925537,543.815857 
	C921.069275,543.528687 921.284668,543.312988 921.971313,543.312500 
	C922.905396,542.944580 923.439758,542.432983 923.974182,541.921326 
z"/>
<path fill="#1A305D" opacity="1.000000" stroke="none" 
	d="
M920.643616,543.884033 
	C921.092102,544.618347 920.980896,545.721313 921.470703,546.174011 
	C924.382812,548.865601 928.028870,550.970764 930.314575,554.089233 
	C935.061401,560.565491 941.220032,560.362000 947.947815,559.237671 
	C949.336731,559.005554 950.821838,559.349670 951.262207,559.373657 
	C952.309631,555.755920 952.291809,551.218811 954.502136,549.421265 
	C956.918701,547.455872 961.395691,548.023865 965.422485,547.420593 
	C965.705994,543.184937 967.750732,539.938660 972.625122,539.281311 
	C973.443481,539.170959 974.273865,539.025879 975.091797,539.060303 
	C977.262085,539.151611 979.428711,539.332275 981.596741,539.477417 
	C981.501282,535.832275 981.409180,532.186890 981.308655,528.541870 
	C981.272095,527.215027 981.215515,525.888672 981.168030,524.562134 
	C982.572815,525.047729 984.119568,525.305969 985.348755,526.072998 
	C987.136047,527.188416 988.516602,529.361633 990.389709,529.843567 
	C993.659424,530.684875 996.284973,529.712830 996.078064,525.327271 
	C995.937683,522.352356 997.558289,520.918701 1000.751221,520.908752 
	C1003.922241,520.898804 1007.091431,520.320312 1010.654663,520.004517 
	C1004.249695,528.935181 997.451416,537.852539 990.191040,546.584290 
	C987.968445,545.662170 986.207886,544.925659 984.447388,544.189148 
	C983.966309,545.776672 983.041321,547.390930 983.134583,548.944031 
	C983.220581,550.376160 984.399780,551.742676 985.097473,553.138062 
	C982.850647,555.246826 980.603821,557.355591 977.858276,559.758545 
	C976.906372,560.368469 976.453186,560.684204 976.000000,561.000000 
	C972.996765,560.331970 969.939453,559.837341 967.012146,558.925537 
	C965.453491,558.440063 964.010071,557.368286 962.710999,556.318298 
	C960.914429,554.866211 959.302856,553.185303 957.612122,551.602356 
	C957.017212,551.978394 956.422302,552.354431 955.827454,552.730469 
	C956.484863,554.410400 956.765381,557.184326 957.870422,557.565002 
	C961.169006,558.701355 963.182190,560.780212 961.775146,563.723999 
	C960.579590,566.225403 957.822937,568.175232 955.382812,569.810791 
	C954.020813,570.723755 951.895874,570.498352 950.150696,570.780151 
	C948.307495,567.164001 942.639526,564.107361 939.005310,565.192261 
	C937.791565,565.554565 936.399109,567.365234 936.255432,568.644958 
	C936.130493,569.757507 937.420288,571.347290 938.499817,572.201965 
	C940.118408,573.483398 943.742981,572.972412 942.596985,576.547241 
	C941.546448,579.823914 941.447327,584.363525 936.193298,583.945984 
	C932.787598,583.675354 931.686829,585.437317 930.670166,588.300842 
	C929.143860,592.600159 927.092590,596.982849 921.247314,595.912354 
	C919.138367,595.526184 917.212402,594.140991 915.202942,593.211731 
	C915.151245,592.714966 915.099548,592.218262 915.047852,591.721558 
	C913.089050,593.021179 911.077698,594.249207 909.185974,595.640076 
	C907.197144,597.102295 905.417908,598.869873 903.345642,600.187195 
	C902.645386,600.632324 901.329834,600.109497 900.295410,600.028992 
	C900.822449,599.031921 901.091797,597.635681 901.918152,597.102478 
	C907.387939,593.572449 908.432373,590.753540 906.197937,584.222900 
	C903.123108,584.610657 901.406799,585.934509 900.824280,589.367371 
	C900.174438,593.196838 895.627686,594.366211 893.206421,591.590576 
	C891.268555,589.368958 891.433838,586.799927 894.298828,586.023315 
	C899.306763,584.665833 899.515564,581.761902 898.372986,577.437439 
	C900.762146,578.058838 902.891602,578.872986 904.798828,580.047852 
	C906.368103,581.014526 907.605164,582.504272 909.112732,583.591187 
	C911.245544,585.128967 913.453430,586.581726 915.767700,587.809937 
	C915.939575,587.901184 917.973572,585.799744 917.854553,584.885193 
	C917.438904,581.690918 918.507507,577.885437 914.261841,575.956421 
	C911.964966,574.912903 909.204163,573.297974 908.273010,571.216064 
	C906.890930,568.126160 909.203552,565.779907 912.003052,563.987427 
	C912.946045,563.383667 913.632690,561.341309 913.377075,560.192139 
	C913.115112,559.014404 911.392517,557.177429 910.599915,557.314209 
	C909.120117,557.569397 907.448608,558.769592 906.565918,560.061157 
	C903.388000,564.710693 899.087646,565.710999 897.425537,562.000000 
	C899.842346,561.274292 902.545776,561.108093 903.658264,559.692017 
	C905.334412,557.558472 905.898682,554.551392 906.935669,551.915649 
	C906.935669,551.915649 906.995789,551.940308 907.382446,551.949463 
	C912.352844,551.958618 916.936707,551.958618 921.679321,551.958618 
	C920.555603,549.038086 919.761780,546.974792 918.967896,544.911621 
	C919.432495,544.591797 919.897095,544.271973 920.643616,543.884033 
M930.103760,565.310242 
	C926.903748,564.442993 923.703735,563.575806 919.456238,562.424683 
	C920.721619,565.537170 921.755310,568.079834 922.789001,570.622498 
	C925.251526,568.775879 930.105469,570.839905 930.103760,565.310242 
M968.499207,556.850464 
	C971.734070,555.998657 971.325745,553.624512 970.424622,551.460022 
	C970.211304,550.947571 968.324158,551.131897 967.206970,550.995667 
	C967.243958,552.823059 967.275269,554.650635 967.335693,556.477234 
	C967.338501,556.563232 967.600403,556.640686 968.499207,556.850464 
M923.622681,591.694153 
	C922.926270,591.353943 922.229797,591.013672 921.533386,590.673462 
	C921.446350,591.100952 921.359253,591.528503 921.272217,591.955994 
	C922.020325,592.078979 922.768494,592.201965 923.622681,591.694153 
M957.840454,562.509277 
	C957.423096,562.215332 957.005737,561.921387 956.588379,561.627441 
	C956.476868,562.062561 956.365295,562.497681 956.253784,562.932800 
	C956.741577,562.984924 957.229309,563.037048 957.840454,562.509277 
z"/>
<path fill="#1A305D" opacity="1.000000" stroke="none" 
	d="
M747.549683,624.915771 
	C750.341064,627.789185 750.832703,630.692627 748.143860,633.800903 
	C745.092346,637.328430 742.017944,640.855164 739.238647,644.594177 
	C735.879272,649.113708 732.567993,653.705872 729.686157,658.535339 
	C724.929016,666.507507 719.507202,673.737000 711.123962,678.231384 
	C710.560486,678.533447 709.786194,678.979553 709.301758,678.810120 
	C703.251221,676.694702 701.315918,681.736755 698.339783,684.387695 
	C699.255798,686.428040 700.202393,687.912292 700.437439,689.501892 
	C700.495789,689.895996 698.248474,690.631042 696.479370,691.492615 
	C696.479370,689.180298 696.479370,687.811523 696.479370,685.814514 
	C692.870605,686.729919 689.198853,693.889709 686.344238,686.737427 
	C684.385010,681.828552 689.268799,679.810120 692.492249,678.251892 
	C691.141418,675.617554 689.911682,673.374451 688.828003,671.062866 
	C687.737610,668.737061 684.111206,668.158936 682.097107,670.073853 
	C675.962830,675.906006 670.677551,674.782104 666.778503,667.128540 
	C666.046997,665.692627 663.967896,664.943298 662.108521,663.795776 
	C665.591125,661.561462 669.475830,659.408569 674.014771,657.033813 
	C679.452026,654.222107 684.235046,651.632324 689.018127,649.042480 
	C695.912903,646.070984 702.796814,643.073547 709.711975,640.150208 
	C711.059875,639.580383 712.529724,639.298828 714.730225,638.950867 
	C724.637390,642.707581 731.930542,639.337097 734.999023,630.014038 
	C739.057983,628.329468 743.116943,626.644897 747.549683,624.915771 
z"/>
<path fill="#1A305D" opacity="1.000000" stroke="none" 
	d="
M864.000000,581.000000 
	C867.659729,582.785034 871.896973,583.956909 874.727173,586.622681 
	C876.071960,587.889282 875.147827,592.115723 874.429382,594.779541 
	C874.091919,596.031006 871.810852,596.758240 869.138855,598.599243 
	C868.336487,595.390503 867.635925,592.588806 866.675354,588.747070 
	C864.961243,590.255432 862.509888,591.506287 861.659180,593.455688 
	C861.009949,594.943298 862.244873,597.365601 862.906006,599.280823 
	C863.560913,601.177917 864.546997,602.960632 865.387817,604.793518 
	C863.533875,605.195679 861.679871,605.597839 859.412964,606.000000 
	C858.980774,605.835205 859.025452,605.601257 858.932983,605.515686 
	C856.462830,603.230774 856.899597,597.279053 852.300781,598.455200 
	C850.370911,598.948853 848.951538,603.752808 848.413757,606.794067 
	C847.727051,610.677917 846.683533,613.539978 841.847046,613.276001 
	C841.847046,618.102051 841.993713,622.246399 841.732117,626.364746 
	C841.674988,627.265076 840.063599,628.840088 839.340515,628.748108 
	C838.184204,628.601135 836.625488,627.541626 836.193237,626.478882 
	C834.275391,621.763306 832.785889,616.874817 830.928101,612.132446 
	C830.525513,611.104919 829.319519,610.318237 828.351074,609.599243 
	C824.126526,606.462952 819.853027,603.392517 815.290039,599.743774 
	C814.936401,598.646606 814.890076,598.103821 814.843750,597.561035 
	C818.339294,595.805969 821.834900,594.050903 825.713318,592.554199 
	C827.050110,595.877380 828.475098,597.794250 832.277283,596.530457 
	C833.541870,596.110107 835.285095,597.129822 838.158875,597.810974 
	C833.090454,600.956848 828.330078,603.076294 833.094910,608.773743 
	C833.926941,608.384583 835.328674,608.186279 835.589905,607.532288 
	C837.233154,603.419373 840.480286,601.664673 844.445801,600.433716 
	C845.089539,600.233826 845.432373,597.661377 845.190430,596.315735 
	C844.742798,593.826355 843.759949,591.433228 843.343384,589.058472 
	C846.105652,590.729858 848.472107,592.429504 850.958313,593.930908 
	C853.335754,595.366638 855.574524,595.655945 857.247620,592.689087 
	C857.674316,591.932373 858.717651,591.472656 859.549377,591.003662 
	C863.523682,588.762512 865.751709,585.774902 864.000000,581.000000 
z"/>
<path fill="#1A305D" opacity="1.000000" stroke="none" 
	d="
M712.357544,742.918213 
	C710.636475,737.551636 712.844299,734.465820 718.405029,734.000427 
	C725.085083,733.441406 729.986145,725.941528 727.568848,719.909851 
	C726.579651,717.441895 727.157959,716.088257 729.713379,714.852356 
	C734.178772,712.692627 738.381287,709.989563 743.019653,707.327271 
	C745.216614,708.304016 748.692017,711.138916 752.013611,710.968811 
	C755.440857,710.793335 758.718445,707.694214 762.712952,706.745605 
	C760.144714,711.429749 757.741455,716.221741 754.827759,720.680115 
	C754.397461,721.338501 751.011414,721.043213 749.928406,720.106873 
	C747.084473,717.648376 744.395020,715.574097 740.684448,717.924683 
	C736.552612,720.542114 734.020386,724.092407 734.551575,729.387146 
	C734.675659,730.624268 733.632996,731.978333 733.064819,733.621460 
	C732.228455,734.311829 731.454407,734.659363 730.189514,734.811035 
	C729.131714,735.084229 728.564819,735.553284 727.997925,736.022278 
	C722.904785,738.307861 717.811707,740.593445 712.357544,742.918213 
z"/>
<path fill="#19305C" opacity="1.000000" stroke="none" 
	d="
M897.000000,562.000000 
	C899.087646,565.710999 903.388000,564.710693 906.565918,560.061157 
	C907.448608,558.769592 909.120117,557.569397 910.599915,557.314209 
	C911.392517,557.177429 913.115112,559.014404 913.377075,560.192139 
	C913.632690,561.341309 912.946045,563.383667 912.003052,563.987427 
	C909.203552,565.779907 906.890930,568.126160 908.273010,571.216064 
	C909.204163,573.297974 911.964966,574.912903 914.261841,575.956421 
	C918.507507,577.885437 917.438904,581.690918 917.854553,584.885193 
	C917.973572,585.799744 915.939575,587.901184 915.767700,587.809937 
	C913.453430,586.581726 911.245544,585.128967 909.112732,583.591187 
	C907.605164,582.504272 906.368103,581.014526 904.798828,580.047852 
	C902.891602,578.872986 900.762146,578.058838 898.364380,577.044312 
	C897.137634,576.168945 896.275269,575.337891 895.150513,573.869812 
	C892.758484,569.172119 888.967224,571.726074 886.000000,571.000000 
	C885.715698,569.130554 885.431396,567.261108 884.970703,565.001709 
	C885.928955,563.744629 887.063538,562.877563 888.846375,561.969177 
	C889.981995,561.546997 890.469360,561.166199 890.956665,560.785400 
	C891.073608,560.487793 891.275757,560.268982 891.887878,560.221497 
	C892.449707,560.125000 892.686768,559.935974 892.923828,559.746948 
	C893.345154,559.468506 893.766479,559.190125 894.820435,558.971802 
	C895.968750,560.021240 896.484375,561.010620 897.000000,562.000000 
z"/>
<path fill="#1A305D" opacity="1.000000" stroke="none" 
	d="
M795.000000,611.000000 
	C796.114197,611.682861 797.277527,612.297852 798.331787,613.063293 
	C800.243164,614.450928 802.138672,615.869751 803.944580,617.389771 
	C805.026367,618.300171 806.103027,619.311279 806.869141,620.481812 
	C808.335999,622.722900 809.725647,625.050232 810.732849,627.511414 
	C810.859863,627.821838 808.603333,629.484802 807.254456,629.947021 
	C804.041687,631.047974 800.851074,631.330750 798.239197,628.320557 
	C797.189392,627.110535 795.815369,626.181763 794.588867,625.125000 
	C794.313599,626.657837 793.658386,628.237122 793.838989,629.714233 
	C794.267700,633.221008 792.212708,633.476562 789.931824,632.707153 
	C787.462646,631.874023 785.065918,630.621399 782.890381,629.172241 
	C779.879211,627.166687 780.280029,622.530457 783.403137,621.042786 
	C790.073242,617.865723 790.065002,617.870483 786.257202,611.246948 
	C786.026855,610.846313 786.088379,610.277893 786.006958,609.410278 
	C786.777039,608.681702 787.554199,608.330383 788.659668,608.212891 
	C788.992004,608.632019 788.996033,608.817200 789.009888,609.368530 
	C789.520813,612.753540 791.088379,612.417908 793.333313,611.000000 
	C794.111084,611.000000 794.555542,611.000000 795.000000,611.000000 
z"/>
<path fill="#19305C" opacity="1.000000" stroke="none" 
	d="
M864.000000,580.602173 
	C865.751709,585.774902 863.523682,588.762512 859.549377,591.003662 
	C858.717651,591.472656 857.674316,591.932373 857.247620,592.689087 
	C855.574524,595.655945 853.335754,595.366638 850.958313,593.930908 
	C848.472107,592.429504 846.105652,590.729858 843.197876,588.728271 
	C842.450684,587.169067 842.192505,585.998535 841.934326,584.828003 
	C842.394836,584.548706 842.855408,584.269470 844.010132,583.986816 
	C846.005554,584.105225 847.321899,584.140869 848.605225,584.365295 
	C852.111816,584.978516 853.977966,583.652771 854.231812,579.861328 
	C854.620117,579.402588 854.778442,579.085022 854.936829,578.767456 
	C857.381653,577.558716 859.826477,576.349976 862.586487,574.996338 
	C863.267822,576.635803 863.633911,578.420105 864.000000,580.602173 
z"/>
<path fill="#1A315F" opacity="1.000000" stroke="none" 
	d="
M841.573547,584.909302 
	C842.192505,585.998535 842.450684,587.169067 842.854431,588.669800 
	C843.759949,591.433228 844.742798,593.826355 845.190430,596.315735 
	C845.432373,597.661377 845.089539,600.233826 844.445801,600.433716 
	C840.480286,601.664673 837.233154,603.419373 835.589905,607.532288 
	C835.328674,608.186279 833.926941,608.384583 833.094910,608.773743 
	C828.330078,603.076294 833.090454,600.956848 838.158875,597.810974 
	C835.285095,597.129822 833.541870,596.110107 832.277283,596.530457 
	C828.475098,597.794250 827.050110,595.877380 826.051392,592.456177 
	C831.075317,589.729980 836.144043,587.360291 841.573547,584.909302 
z"/>
<path fill="#1B325F" opacity="1.000000" stroke="none" 
	d="
M952.310547,589.814270 
	C950.872864,589.172729 949.532654,588.622681 948.677734,587.647339 
	C947.311340,586.088318 945.711731,584.363037 945.317322,582.476685 
	C945.115112,581.509460 947.204651,579.921021 948.448059,578.829102 
	C950.051392,577.421021 951.990356,576.382324 953.529663,574.916687 
	C959.207886,569.509827 960.232056,569.630615 963.955444,576.841919 
	C960.284607,581.356873 956.455139,585.535889 952.310547,589.814270 
z"/>
<path fill="#1B325F" opacity="1.000000" stroke="none" 
	d="
M939.000000,597.000000 
	C937.325500,594.486023 935.651001,591.971985 933.396118,588.586609 
	C934.246155,584.879150 938.186951,585.738647 941.354736,586.175537 
	C946.098938,586.829895 946.273926,590.663757 946.122314,594.917358 
	C946.074036,595.612366 945.930542,595.811279 945.204102,596.030212 
	C943.774109,596.385925 942.887024,596.692993 941.625000,597.000000 
	C940.500000,597.000000 939.750000,597.000000 939.000000,597.000000 
z"/>
<path fill="#1A315F" opacity="1.000000" stroke="none" 
	d="
M734.630005,630.052246 
	C731.930542,639.337097 724.637390,642.707581 715.109009,638.942139 
	C721.220886,635.941345 727.740967,633.015930 734.630005,630.052246 
z"/>
<path fill="#1B3260" opacity="1.000000" stroke="none" 
	d="
M789.000000,609.002441 
	C788.996033,608.817200 788.992004,608.632019 788.977783,608.168335 
	C793.085876,606.030029 797.204041,604.170166 801.659546,602.198242 
	C803.378906,610.276550 802.971191,610.866516 795.417969,611.000000 
	C794.555542,611.000000 794.111084,611.000000 793.172058,610.696655 
	C791.451660,609.929626 790.225830,609.466003 789.000000,609.002441 
z"/>
<path fill="#1A305D" opacity="1.000000" stroke="none" 
	d="
M938.790955,597.281128 
	C939.750000,597.000000 940.500000,597.000000 941.804688,597.244507 
	C942.927795,597.677063 943.496155,597.865173 944.064575,598.053284 
	C940.601257,601.590027 937.137939,605.126770 933.425781,608.871704 
	C931.696594,606.751526 930.216431,604.423157 928.736267,602.094788 
	C928.919067,601.610229 929.101807,601.125732 929.284607,600.641235 
	C934.323669,603.947937 936.949402,601.864197 938.790955,597.281128 
z"/>
<path fill="#1B325F" opacity="1.000000" stroke="none" 
	d="
M970.329956,570.920898 
	C968.389832,569.558960 966.752502,568.046570 964.735901,566.183899 
	C965.876282,561.906982 969.487000,560.803467 975.675781,563.981445 
	C974.243896,566.283020 972.438354,568.526733 970.329956,570.920898 
z"/>
<path fill="#1A315F" opacity="1.000000" stroke="none" 
	d="
M897.425537,562.000000 
	C896.484375,561.010620 895.968750,560.021240 895.080566,558.950806 
	C898.548462,556.587646 902.388855,554.305542 906.582397,551.969543 
	C905.898682,554.551392 905.334412,557.558472 903.658264,559.692017 
	C902.545776,561.108093 899.842346,561.274292 897.425537,562.000000 
z"/>
<path fill="#1A315F" opacity="1.000000" stroke="none" 
	d="
M918.629700,544.995728 
	C919.761780,546.974792 920.555603,549.038086 921.679321,551.958618 
	C916.936707,551.958618 912.352844,551.958618 907.352905,551.946533 
	C910.721741,549.649536 914.506653,547.364685 918.629700,544.995728 
z"/>
<path fill="#1B3260" opacity="1.000000" stroke="none" 
	d="
M883.626709,564.822388 
	C883.914856,566.278320 884.296082,568.033875 883.618896,569.143677 
	C882.754517,570.560181 881.044067,572.325928 879.682190,572.339600 
	C878.204041,572.354370 876.707458,570.529480 875.074585,569.181458 
	C877.703369,567.515808 880.476501,566.175476 883.626709,564.822388 
z"/>
<path fill="#19305C" opacity="1.000000" stroke="none" 
	d="
M985.300415,553.015015 
	C984.399780,551.742676 983.220581,550.376160 983.134583,548.944031 
	C983.041321,547.390930 983.966309,545.776672 984.447388,544.189148 
	C986.207886,544.925659 987.968445,545.662170 989.891113,546.746094 
	C989.599426,547.973938 989.145508,548.854309 988.084290,549.920166 
	C986.999817,550.779175 986.522766,551.452698 986.045654,552.126282 
	C985.943176,552.436951 985.762390,552.692200 985.300415,553.015015 
z"/>
<path fill="#1B3260" opacity="1.000000" stroke="none" 
	d="
M814.455261,597.639648 
	C814.890076,598.103821 814.936401,598.646606 814.991333,599.594727 
	C812.857544,607.129639 808.828247,602.290771 805.207031,601.231750 
	C808.006165,599.876770 811.036499,598.797485 814.455261,597.639648 
z"/>
<path fill="#D3D5D4" opacity="1.000000" stroke="none" 
	d="
M688.645020,648.935059 
	C684.235046,651.632324 679.452026,654.222107 674.312622,656.847534 
	C673.675293,656.603882 673.394226,656.324646 672.853882,655.887573 
	C677.820374,653.429016 683.046204,651.128296 688.645020,648.935059 
z"/>
<path fill="#1A315F" opacity="1.000000" stroke="none" 
	d="
M854.001892,580.002441 
	C853.977966,583.652771 852.111816,584.978516 848.605225,584.365295 
	C847.321899,584.140869 846.005554,584.105225 844.287598,583.967651 
	C846.603943,582.615051 849.336975,581.278198 852.733643,579.956421 
	C853.598816,579.981750 853.800354,579.992126 854.001892,580.002441 
z"/>
<path fill="#1B325F" opacity="1.000000" stroke="none" 
	d="
M976.000366,561.380859 
	C976.453186,560.684204 976.906372,560.368469 977.646729,560.028809 
	C977.510925,561.250366 977.087952,562.495850 976.350708,563.895508 
	C976.024536,563.287109 976.012634,562.524414 976.000366,561.380859 
z"/>
<path fill="#19305C" opacity="1.000000" stroke="none" 
	d="
M967.565369,574.134155 
	C967.005737,573.750793 966.699768,573.283508 966.393799,572.816284 
	C967.057068,572.789734 967.720459,572.763184 968.656494,572.848022 
	C968.559143,573.323120 968.189087,573.686707 967.565369,574.134155 
z"/>
<path fill="#1A315F" opacity="1.000000" stroke="none" 
	d="
M944.050781,598.035889 
	C943.496155,597.865173 942.927795,597.677063 942.179688,597.244507 
	C942.887024,596.692993 943.774109,596.385925 945.046143,596.130249 
	C945.431213,596.181641 945.278992,596.578979 944.948730,596.892273 
	C944.418884,597.487000 944.219299,597.768494 944.019775,598.049988 
	C944.019775,598.049988 944.036987,598.018555 944.050781,598.035889 
z"/>
<path fill="#1A315F" opacity="1.000000" stroke="none" 
	d="
M928.672607,539.013123 
	C928.186401,539.630432 927.384155,540.298889 926.210693,540.952454 
	C926.678528,540.313110 927.517517,539.688721 928.672607,539.013123 
z"/>
<path fill="#1A305D" opacity="1.000000" stroke="none" 
	d="
M986.351074,552.036011 
	C986.522766,551.452698 986.999817,550.779175 987.824158,550.084961 
	C987.666382,550.691467 987.161438,551.318604 986.351074,552.036011 
z"/>
<path fill="#1A315F" opacity="1.000000" stroke="none" 
	d="
M728.291016,735.995239 
	C728.564819,735.553284 729.131714,735.084229 729.872437,734.849304 
	C729.558960,735.378418 729.071594,735.673340 728.291016,735.995239 
z"/>
<path fill="#1A315F" opacity="1.000000" stroke="none" 
	d="
M923.685059,541.972412 
	C923.439758,542.432983 922.905396,542.944580 922.190796,543.237915 
	C922.472351,542.687561 922.934143,542.355530 923.685059,541.972412 
z"/>
<path fill="#1B3260" opacity="1.000000" stroke="none" 
	d="
M890.653992,560.858521 
	C890.469360,561.166199 889.981995,561.546997 889.160889,561.932739 
	C889.335144,561.602295 889.843201,561.266968 890.653992,560.858521 
z"/>
<path fill="#1B3260" opacity="1.000000" stroke="none" 
	d="
M854.231812,579.861328 
	C853.800354,579.992126 853.598816,579.981750 853.093994,579.941406 
	C853.304932,579.582397 853.819031,579.253479 854.635010,578.845947 
	C854.778442,579.085022 854.620117,579.402588 854.231812,579.861328 
z"/>
<path fill="#1B325F" opacity="1.000000" stroke="none" 
	d="
M948.248779,593.997925 
	C948.096069,593.784729 948.258301,593.500671 948.731567,593.145996 
	C948.784790,593.303223 948.625183,593.587097 948.248779,593.997925 
z"/>
<path fill="#1A315F" opacity="1.000000" stroke="none" 
	d="
M892.691589,559.806152 
	C892.686768,559.935974 892.449707,560.125000 892.104004,560.149902 
	C891.995361,559.985779 892.459351,559.865295 892.691589,559.806152 
z"/>
<path fill="#1B325F" opacity="1.000000" stroke="none" 
	d="
M944.260620,597.938965 
	C944.219299,597.768494 944.418884,597.487000 944.851807,597.081665 
	C944.890625,597.247925 944.696045,597.537964 944.260620,597.938965 
z"/>
<path fill="#19305C" opacity="1.000000" stroke="none" 
	d="
M1063.587524,431.660065 
	C1063.494385,431.742554 1063.442505,431.458710 1063.442505,431.458710 
	C1063.442505,431.458710 1063.680664,431.577576 1063.587524,431.660065 
z"/>
<path fill="#1A305D" opacity="1.000000" stroke="none" 
	d="
M657.558105,665.908691 
	C657.408447,667.028931 656.905273,668.200928 656.216370,669.805481 
	C660.981140,674.281616 668.981873,677.172852 665.986328,686.286865 
	C657.572815,685.787720 650.996704,682.659180 650.895203,672.449463 
	C649.037292,672.615540 647.748657,672.730774 646.072266,672.757019 
	C649.524475,670.432190 653.364502,668.196350 657.558105,665.908691 
z"/>
<path fill="#1A305D" opacity="1.000000" stroke="none" 
	d="
M643.545166,673.854370 
	C642.662415,674.728455 641.467773,675.661499 639.934326,676.407043 
	C640.808167,675.450806 642.020752,674.682007 643.545166,673.854370 
z"/>
<path fill="#1A305D" opacity="1.000000" stroke="none" 
	d="
M645.461060,672.685059 
	C645.323181,673.026306 644.895996,673.445129 644.135010,673.852600 
	C644.257996,673.481689 644.714783,673.122192 645.461060,672.685059 
z"/>
<path fill="#1A305D" opacity="1.000000" stroke="none" 
	d="
M659.589966,664.809998 
	C659.427063,665.138672 658.963623,665.516846 658.176453,665.895142 
	C658.331665,665.550110 658.810608,665.204773 659.589966,664.809998 
z"/>
<path fill="#1A305D" opacity="1.000000" stroke="none" 
	d="
M661.497498,663.709351 
	C661.347778,664.046814 660.903381,664.454651 660.124878,664.846802 
	C660.261414,664.480652 660.732178,664.130188 661.497498,663.709351 
z"/>
<path fill="#1A305D" opacity="1.000000" stroke="none" 
	d="
M756.904358,640.450439 
	C755.567932,640.073730 754.614075,639.846191 753.346375,639.543823 
	C754.981506,635.856323 756.551880,632.314941 758.338318,628.286072 
	C758.476074,628.277954 759.417480,627.929199 760.044678,628.231812 
	C764.835449,630.543945 769.329773,631.827698 774.407471,628.302673 
	C776.196594,627.060669 779.431763,627.190796 780.488770,631.085388 
	C781.118835,633.407104 783.294067,635.286865 784.637939,637.450256 
	C785.077820,638.158447 785.086792,639.134399 785.292786,639.987793 
	C784.253174,640.130005 782.674194,640.779053 782.257568,640.335815 
	C778.188354,636.005310 773.817566,638.418762 769.358948,639.291321 
	C765.401184,640.065979 761.315918,640.188965 756.904358,640.450439 
z"/>
<path fill="#1A305D" opacity="1.000000" stroke="none" 
	d="
M815.906189,640.129150 
	C815.118774,638.249084 814.618774,636.650085 814.118774,635.051147 
	C813.557922,635.111633 812.997009,635.172119 812.436157,635.232605 
	C812.436157,637.944275 812.436157,640.656006 812.436157,643.890930 
	C811.301025,643.649658 809.642456,643.702698 809.423462,643.166992 
	C808.952148,642.014282 808.740967,640.306885 809.280945,639.275513 
	C810.731873,636.504211 808.640869,631.494873 813.889893,631.141296 
	C816.752075,630.948425 819.683960,631.801819 822.547424,631.615356 
	C824.814453,631.467712 827.025208,630.454529 829.517761,629.753479 
	C831.355957,634.113953 827.760742,634.825989 824.864075,635.456543 
	C821.923767,636.096619 820.194885,637.043152 821.989441,641.000793 
	C819.622009,640.759644 817.907837,640.585022 815.906189,640.129150 
z"/>
<path fill="#1A305D" opacity="1.000000" stroke="none" 
	d="
M885.695312,571.153809 
	C888.967224,571.726074 892.758484,569.172119 894.944031,573.616394 
	C892.508606,573.848267 891.139221,574.654968 889.573181,577.070862 
	C887.754578,579.876282 884.264587,581.670105 881.296326,583.587585 
	C880.804443,583.905396 878.348938,582.559509 878.376465,582.071350 
	C878.506409,579.769470 878.626465,577.127747 879.825623,575.321472 
	C881.009705,573.538086 883.482910,572.610535 885.695312,571.153809 
z"/>
<path fill="#1B3260" opacity="1.000000" stroke="none" 
	d="
M873.980591,577.289795 
	C873.172058,579.064941 872.351562,580.455688 871.531128,581.846497 
	C870.525696,580.874329 868.623047,579.808716 868.712463,578.950562 
	C868.870300,577.435181 870.241943,576.046204 871.105408,574.604309 
	C872.059814,575.371338 873.014221,576.138367 873.980591,577.289795 
z"/>
<path fill="#1A305D" opacity="1.000000" stroke="none" 
	d="
M745.427490,700.499146 
	C744.222229,700.242859 743.293335,699.778625 742.364502,699.314453 
	C742.916504,698.589111 743.321594,697.555786 744.053162,697.206787 
	C745.310791,696.606934 746.771973,696.433899 749.381409,695.765808 
	C747.615845,697.938416 746.659851,699.114868 745.427490,700.499146 
z"/>
<path fill="#1A305D" opacity="1.000000" stroke="none" 
	d="
M811.112427,610.393066 
	C809.792236,609.983582 808.776550,609.415649 807.760864,608.847717 
	C808.124390,608.354370 808.487854,607.860962 808.851379,607.367615 
	C809.578552,608.468323 813.335999,606.134583 811.112427,610.393066 
z"/>
<path fill="#1A305D" opacity="1.000000" stroke="none" 
	d="
M824.504150,623.397705 
	C826.077515,623.606873 827.340393,623.978149 829.582397,624.637146 
	C824.229492,626.433472 824.229492,626.433472 824.504150,623.397705 
z"/>
<path fill="#1A305D" opacity="1.000000" stroke="none" 
	d="
M880.537720,599.399414 
	C880.837585,600.293884 880.841309,601.031372 880.845093,601.768921 
	C880.065125,601.377625 879.285095,600.986267 878.505127,600.594910 
	C879.083923,600.144104 879.662781,599.693298 880.537720,599.399414 
z"/>
<path fill="#1A305D" opacity="1.000000" stroke="none" 
	d="
M792.479919,654.645508 
	C792.902466,654.165710 793.455383,653.945496 794.008301,653.725220 
	C794.105408,654.288086 794.202515,654.850891 794.299622,655.413757 
	C793.736511,655.244202 793.173401,655.074585 792.479919,654.645508 
z"/>
<path fill="#1A305D" opacity="1.000000" stroke="none" 
	d="
M706.488281,685.281738 
	C706.482727,684.549805 706.683105,684.030273 706.883484,683.510803 
	C707.150757,683.641541 707.418030,683.772339 707.685303,683.903076 
	C707.354980,684.433472 707.024658,684.963806 706.488281,685.281738 
z"/>
<path fill="#1A305D" opacity="1.000000" stroke="none" 
	d="
M797.200867,635.778931 
	C796.963135,635.229492 797.015320,634.741638 797.067505,634.253845 
	C797.502625,634.365356 797.937683,634.476929 798.372803,634.588501 
	C798.078796,635.005859 797.784851,635.423157 797.200867,635.778931 
z"/>
<path fill="#1A305D" opacity="1.000000" stroke="none" 
	d="
M698.954834,716.580688 
	C698.723511,716.200500 698.725647,715.822571 698.755005,715.446777 
	C698.755859,715.436401 699.048706,715.448730 699.205383,715.450439 
	C699.200928,715.828003 699.196533,716.205627 698.954834,716.580688 
z"/>
<path fill="#1A305D" opacity="1.000000" stroke="none" 
	d="
M858.721558,606.037354 
	C858.701904,606.500305 858.403809,607.000610 858.105713,607.500916 
	C857.901245,607.324646 857.696777,607.148438 857.492371,606.972229 
	C857.809265,606.673035 858.126099,606.373840 858.721558,606.037354 
z"/>
<path fill="#1A305D" opacity="1.000000" stroke="none" 
	d="
M862.373535,635.447266 
	C861.942871,635.335510 861.681824,635.061646 861.420715,634.787781 
	C861.534119,634.679749 861.647522,634.571716 861.760864,634.463684 
	C862.021606,634.737549 862.282349,635.011353 862.373535,635.447266 
z"/>
<path fill="#1A305D" opacity="1.000000" stroke="none" 
	d="
M882.552795,608.373596 
	C882.664551,607.942932 882.938416,607.681824 883.212280,607.420654 
	C883.320312,607.533997 883.428345,607.647339 883.536377,607.760742 
	C883.262512,608.021545 882.988708,608.282349 882.552795,608.373596 
z"/>
<path fill="#19305C" opacity="1.000000" stroke="none" 
	d="
M930.367676,565.568481 
	C930.105469,570.839905 925.251526,568.775879 922.789001,570.622498 
	C921.755310,568.079834 920.721619,565.537170 919.456238,562.424683 
	C923.703735,563.575806 926.903748,564.442993 930.367676,565.568481 
z"/>
<path fill="#19305C" opacity="1.000000" stroke="none" 
	d="
M968.120483,556.786255 
	C967.600403,556.640686 967.338501,556.563232 967.335693,556.477234 
	C967.275269,554.650635 967.243958,552.823059 967.206970,550.995667 
	C968.324158,551.131897 970.211304,550.947571 970.424622,551.460022 
	C971.325745,553.624512 971.734070,555.998657 968.120483,556.786255 
z"/>
<path fill="#19305C" opacity="1.000000" stroke="none" 
	d="
M923.569641,592.009521 
	C922.768494,592.201965 922.020325,592.078979 921.272217,591.955994 
	C921.359253,591.528503 921.446350,591.100952 921.533386,590.673462 
	C922.229797,591.013672 922.926270,591.353943 923.569641,592.009521 
z"/>
<path fill="#19305C" opacity="1.000000" stroke="none" 
	d="
M957.778809,562.799255 
	C957.229309,563.037048 956.741577,562.984924 956.253784,562.932800 
	C956.365295,562.497681 956.476868,562.062561 956.588379,561.627441 
	C957.005737,561.921387 957.423096,562.215332 957.778809,562.799255 
z"/>
<path fill="#1A315F" opacity="1.000000" stroke="none" 
	d="
M789.009888,609.368530 
	C790.225830,609.466003 791.451660,609.929626 792.838745,610.696655 
	C791.088379,612.417908 789.520813,612.753540 789.009888,609.368530 
z"/>
</svg>